<?xml version="1.0" encoding="UTF-8" standalone="no"?>
<!-- Created with Inkscape (http://www.inkscape.org/) -->

<svg
   width="48"
   height="48"
   viewBox="0 0 12.699999 12.7"
   version="1.1"
   id="svg1"
   sodipodi:docname="americaversed.svg"
   inkscape:version="1.3 (0e150ed, 2023-07-21)"
   inkscape:export-filename="../../../VMS/americaversed/icons/americaversed.png"
   inkscape:export-xdpi="96"
   inkscape:export-ydpi="96"
   xmlns:inkscape="http://www.inkscape.org/namespaces/inkscape"
   xmlns:sodipodi="http://sodipodi.sourceforge.net/DTD/sodipodi-0.dtd"
   xmlns="http://www.w3.org/2000/svg"
   xmlns:svg="http://www.w3.org/2000/svg">
  <sodipodi:namedview
     id="namedview1"
     pagecolor="#ffffff"
     bordercolor="#666666"
     borderopacity="1.0"
     inkscape:showpageshadow="2"
     inkscape:pageopacity="0.0"
     inkscape:pagecheckerboard="0"
     inkscape:deskcolor="#d1d1d1"
     inkscape:document-units="mm"
     inkscape:zoom="1.3249068"
     inkscape:cx="237.75256"
     inkscape:cy="264.16952"
     inkscape:window-width="1616"
     inkscape:window-height="997"
     inkscape:window-x="215"
     inkscape:window-y="25"
     inkscape:window-maximized="0"
     inkscape:current-layer="layer1" />
  <defs
     id="defs1" />
  <g
     inkscape:label="trump"
     inkscape:groupmode="layer"
     id="layer1"
     transform="matrix(0.88888889,0,0,0.97656254,24.062784,0.26884936)"
     sodipodi:insensitive="true">
    <path
       id="path1"
       style="fill:#feaa2d;fill-opacity:1;stroke-width:0.0831564;stroke-linecap:round;stroke-linejoin:round"
       d="m -21.474694,2.2521925 a 3.81,2.9505688 0 0 0 -3.81,2.9505687 v 2.950568 a 3.81,2.9505688 0 0 0 3.81,2.9505678 3.81,2.9505688 0 0 0 3.81,-2.9505678 v -2.950568 a 3.81,2.9505688 0 0 0 -3.81,-2.9505687 z" />
    <path
       id="path3"
       style="fill:#fdd453;fill-opacity:1;stroke-width:0.0644541;stroke-linecap:round;stroke-linejoin:round"
       d="m -22.559426,1.3502982 c -1.348128,0 -2.441452,1.2285324 -2.447509,2.7465292 h 4.895018 c -9e-6,-0.00238 -1.73e-4,-0.00473 -1.8e-4,-0.00711 h 1.8e-4 c 1.343929,0 2.434441,-1.220841 2.447223,-2.7323025 h -4.727402 c -0.05535,-0.00422 -0.111028,-0.00711 -0.16733,-0.00711 z" />
    <path
       id="path84"
       style="display:inline;opacity:1;fill:#000000;fill-opacity:1;stroke:none;stroke-width:0.381121;stroke-linecap:round;stroke-linejoin:round"
       d="M 8.4832031,8.1230184 H 7.8846604 V 7.5721476 c 0,-0.06648 -0.053409,-0.1198893 -0.1198894,-0.1198893 H 7.4868926 c -0.06648,0 -0.1198893,0.053409 -0.1198893,0.1198893 V 8.1230184 H 6.5616607 V 7.5721476 c 0,-0.06648 -0.053409,-0.1198893 -0.1198893,-0.1198893 H 6.163976 c -0.06648,0 -0.1198893,0.053409 -0.1198893,0.1198893 V 8.1230184 H 5.2387164 V 7.5721476 c 0,-0.06648 -0.054061,-0.1198893 -0.1205418,-0.1198893 H 4.8410593 c -0.06648,0 -0.1198893,0.053409 -0.1198893,0.1198893 V 8.1230184 H 3.9157167 V 7.5721476 c 0,-0.06648 -0.053978,-0.1198893 -0.1204587,-0.1198893 H 3.5181426 c -0.06648,0 -0.1198893,0.053409 -0.1198893,0.1198893 V 8.1230184 H 2.5926617 V 7.5721476 c 0,-0.06648 -0.053409,-0.1198893 -0.1198893,-0.1198893 H 2.195226 c -0.06648,0 -0.1198893,0.053409 -0.1198893,0.1198893 V 8.1230184 H 1.5875 v 0.3172933 h 0.487837 v 0.5508708 c 0,0.06648 0.053409,0.1198893 0.1198893,0.1198893 h 0.2775464 c 0.06648,0 0.1198893,-0.053409 0.1198893,-0.1198893 V 8.4403117 h 0.8055923 v 0.5508708 c 0,0.06648 0.053409,0.1198893 0.1198893,0.1198893 H 3.795259 c 0.06648,0 0.1204587,-0.053409 0.1204587,-0.1198893 V 8.4403117 h 0.8054539 v 0.5508708 c 0,0.06648 0.053409,0.1198893 0.1198893,0.1198893 h 0.2771154 c 0.06648,0 0.1205417,-0.053409 0.1205417,-0.1198893 V 8.4403117 h 0.805371 v 0.5508708 c 0,0.06648 0.053409,0.1198893 0.1198893,0.1198893 h 0.2777954 c 0.06648,0 0.1198893,-0.053409 0.1198893,-0.1198893 V 8.4403117 h 0.8053433 v 0.5508708 c 0,0.06648 0.053409,0.1198893 0.1198893,0.1198893 H 7.764774 c 0.06648,0 0.1198893,-0.053409 0.1198893,-0.1198893 V 8.4403117 h 0.5985431 z"
       sodipodi:nodetypes="ccssssccssssccssssccssssccssssccccssssccssssccssssccssssccssssccc"
       transform="matrix(1.125,0,0,1.024,-27.070632,-0.27530173)" />
    <path
       id="path85"
       style="display:inline;opacity:1;fill:#000000;fill-opacity:1;stroke:none;stroke-width:0.45599;stroke-linecap:round;stroke-linejoin:round"
       d="m 11.1125,5.1402547 c -1.9831428,0 -2.4655555,1.7267819 -2.6571309,2.8137818 -0.03553,0.1474563 -0.094535,0.167856 -0.094535,0.167856 l -0.1791667,0.00112 v 0.3172933 l 0.3015393,4.1e-6 C 8.5840905,7.8997655 9.0415294,7.5467357 9.4458753,7.4925659 10.051866,7.4114698 10.506807,6.9238778 10.658303,6.4373332 L 10.506656,6.2761027 10.658303,6.1128052 c 0.151345,-0.1623436 0.3027,-0.4864937 0.454197,-0.9725505 z m -0.452719,0.359668 c -0.07771,0.1855349 -0.150859,0.3142184 -0.216002,0.3839559 L 10.292132,6.0461426 10.078349,6.2761027 10.29879,6.512264 C 10.127597,6.850413 9.7888627,7.1191808 9.4081487,7.170105 9.2086273,7.1968612 9.0357711,7.2684286 8.8903337,7.3814616 8.9170021,7.2869109 8.9467755,7.1937914 8.9820608,7.0925903 9.2935374,6.1963769 9.8124606,5.6405347 10.659781,5.4999227 Z"
       sodipodi:nodetypes="cccccccccccccccccccc"
       transform="matrix(1.125,0,0,1.024,-27.070632,-0.27530173)" />
    <path
       style="display:inline;fill:#ffffff;stroke:#ffffff;stroke-width:0.024647"
       d="m 10.659995,5.5001899 c -0.07771,0.185536 -0.151203,0.3143305 -0.216346,0.3840683 l -0.151528,0.1623272 -0.214056,0.2294952 0.220608,0.2359926 C 10.12748,6.8502237 9.7891819,7.1192417 9.4084679,7.1701659 9.2089459,7.1969222 9.0360494,7.2686093 8.8906114,7.3816428 8.9172798,7.2870919 8.9471404,7.1937102 8.9824263,7.0925086 H 8.9822202 C 9.2936979,6.1962915 9.8126152,5.6408026 10.659942,5.5001899 Z"
       id="path86"
       transform="matrix(1.125,0,0,1.024,-27.070632,-0.27530173)" />
  </g>
</svg>
